{
  "accessors": [
    {
      "bufferView": 2,
      "componentType": 5126,
      "count": 30136,
      "max": [
        0.8534039258956909,
        0.3563084602355957,
        0.434954971075058
      ],
      "min": [
        -0.8580694198608398,
        -0.3459134101867676,
        -0.43526169657707214
      ],
      "type": "VEC3"
    },
    {
      "bufferView": 2,
      "byteOffset": 361632,
      "componentType": 5126,
      "count": 30136,
      "max": [
        0.9999930262565613,
        0.9999937415122986,
        0.9999991655349731
      ],
      "min": [
        -0.9999959468841553,
        -0.9999989867210388,
        -0.999999463558197
      ],
      "type": "VEC3"
    },
    {
      "bufferView": 1,
      "componentType": 5126,
      "count": 30136,
      "max": [
        0.963497519493103,
        0.9982088208198547
      ],
      "min": [
        0.0018215769669041038,
        0.00178188004065305
      ],
      "type": "VEC2"
    },
    {
      "bufferView": 1,
      "byteOffset": 241088,
      "componentType": 5126,
      "count": 30136,
      "max": [
        0.963497519493103,
        0.9982088208198547
      ],
      "min": [
        0.0018215769669041038,
        0.00178188004065305
      ],
      "type": "VEC2"
    },
    {
      "bufferView": 1,
      "byteOffset": 482176,
      "componentType": 5126,
      "count": 30136,
      "max": [
        0.963497519493103,
        0.9982088208198547
      ],
      "min": [
        0.0018215769669041038,
        0.00178188004065305
      ],
      "type": "VEC2"
    },
    {
      "bufferView": 1,
      "byteOffset": 723264,
      "componentType": 5126,
      "count": 30136,
      "max": [
        0.963497519493103,
        0.9982088208198547
      ],
      "min": [
        0.0018215769669041038,
        0.00178188004065305
      ],
      "type": "VEC2"
    },
    {
      "bufferView": 1,
      "byteOffset": 964352,
      "componentType": 5126,
      "count": 30136,
      "max": [
        0.963497519493103,
        0.9982088208198547
      ],
      "min": [
        0.0018215769669041038,
        0.00178188004065305
      ],
      "type": "VEC2"
    },
    {
      "bufferView": 1,
      "byteOffset": 1205440,
      "componentType": 5126,
      "count": 30136,
      "max": [
        0.963497519493103,
        0.9982088208198547
      ],
      "min": [
        0.0018215769669041038,
        0.00178188004065305
      ],
      "type": "VEC2"
    },
    {
      "bufferView": 1,
      "byteOffset": 1446528,
      "componentType": 5126,
      "count": 30136,
      "max": [
        0.963497519493103,
        0.9982088208198547
      ],
      "min": [
        0.0018215769669041038,
        0.00178188004065305
      ],
      "type": "VEC2"
    },
    {
      "bufferView": 1,
      "byteOffset": 1687616,
      "componentType": 5126,
      "count": 30136,
      "max": [
        0.963497519493103,
        0.9982088208198547
      ],
      "min": [
        0.0018215769669041038,
        0.00178188004065305
      ],
      "type": "VEC2"
    },
    {
      "bufferView": 1,
      "byteOffset": 1928704,
      "componentType": 5126,
      "count": 30136,
      "max": [
        0.963497519493103,
        0.9982088208198547
      ],
      "min": [
        0.0018215769669041038,
        0.00178188004065305
      ],
      "type": "VEC2"
    },
    {
      "bufferView": 1,
      "byteOffset": 2169792,
      "componentType": 5126,
      "count": 30136,
      "max": [
        0.963497519493103,
        0.9982088208198547
      ],
      "min": [
        0.0018215769669041038,
        0.00178188004065305
      ],
      "type": "VEC2"
    },
    {
      "bufferView": 0,
      "componentType": 5125,
      "count": 150000,
      "type": "SCALAR"
    }
  ],
  "asset": {
    "extras": {
      "author": "vicente betoret ferrero (https://sketchfab.com/deathcow)",
      "license": "CC-BY-4.0 (http://creativecommons.org/licenses/by/4.0/)",
      "source": "https://sketchfab.com/3d-models/classic-sofa-0e68907a45e94eb9ad2787e639526e7c",
      "title": "classic sofa"
    },
    "generator": "Sketchfab-15.65.0",
    "version": "2.0"
  },
  "bufferViews": [
    {
      "buffer": 0,
      "byteLength": 600000,
      "name": "floatBufferViews",
      "target": 34963,
      "byteOffset": 0
    },
    {
      "buffer": 0,
      "byteLength": 2410880,
      "byteOffset": 600000,
      "byteStride": 8,
      "name": "floatBufferViews",
      "target": 34962
    },
    {
      "buffer": 0,
      "byteLength": 723264,
      "byteOffset": 3010880,
      "byteStride": 12,
      "name": "floatBufferViews",
      "target": 34962
    }
  ],
  "buffers": [
    {
      "uri": "classic_sofa_data.bin",
      "byteLength": 3734144
    }
  ],
  "extensionsUsed": [
    "KHR_materials_specular"
  ],
  "images": [
    {
      "uri": "classic_sofa_img0.png"
    },
    {
      "uri": "classic_sofa_img1.png"
    }
  ],
  "materials": [
    {
      "doubleSided": true,
      "extensions": {
        "KHR_materials_specular": {
          "specularColorFactor": [
            1,
            1,
            1
          ],
          "specularFactor": 0
        }
      },
      "name": "default.001",
      "occlusionTexture": {
        "index": 1
      },
      "pbrMetallicRoughness": {
        "baseColorTexture": {
          "index": 0
        },
        "metallicFactor": 0,
        "metallicRoughnessTexture": {
          "index": 1
        }
      }
    }
  ],
  "meshes": [
    {
      "name": "model_default.001_0",
      "primitives": [
        {
          "attributes": {
            "NORMAL": 1,
            "POSITION": 0,
            "TEXCOORD_0": 2,
            "TEXCOORD_1": 3,
            "TEXCOORD_2": 4,
            "TEXCOORD_3": 5,
            "TEXCOORD_4": 6,
            "TEXCOORD_5": 7,
            "TEXCOORD_6": 8,
            "TEXCOORD_7": 9,
            "TEXCOORD_8": 10,
            "TEXCOORD_9": 11
          },
          "indices": 12,
          "material": 0,
          "mode": 4
        }
      ]
    }
  ],
  "nodes": [
    {
      "children": [
        1
      ],
      "matrix": [
        1,
        0,
        0,
        0,
        0,
        2.220446049250313e-16,
        -1,
        0,
        0,
        1,
        2.220446049250313e-16,
        0,
        0,
        0,
        0,
        1
      ],
      "name": "Sketchfab_model"
    },
    {
      "children": [
        2
      ],
      "matrix": [
        1,
        0,
        0,
        0,
        0,
        0,
        1,
        0,
        0,
        -1,
        0,
        0,
        0,
        0,
        0,
        1
      ],
      "name": "sofa.fbx"
    },
    {
      "children": [
        3
      ],
      "name": "RootNode"
    },
    {
      "children": [
        4
      ],
      "matrix": [
        1,
        0,
        0,
        0,
        0,
        2.220446049250313e-16,
        -1,
        0,
        0,
        1,
        2.220446049250313e-16,
        0,
        0,
        0,
        0,
        1
      ],
      "name": "Scene"
    },
    {
      "children": [
        5
      ],
      "name": "model"
    },
    {
      "mesh": 0,
      "name": "model_default.001_0"
    }
  ],
  "samplers": [
    {
      "magFilter": 9729,
      "minFilter": 9987,
      "wrapS": 10497,
      "wrapT": 10497
    }
  ],
  "scene": 0,
  "scenes": [
    {
      "name": "Sketchfab_Scene",
      "nodes": [
        0
      ]
    }
  ],
  "textures": [
    {
      "sampler": 0,
      "source": 0
    },
    {
      "sampler": 0,
      "source": 1
    }
  ]
}