{
  "accessors": [
    {
      "bufferView": 2,
      "componentType": 5126,
      "count": 5136,
      "max": [
        35.75,
        74.71559143066406,
        40.19999694824219
      ],
      "min": [
        -35.75,
        0,
        -40.45228958129883
      ],
      "type": "VEC3"
    },
    {
      "bufferView": 2,
      "byteOffset": 61632,
      "componentType": 5126,
      "count": 5136,
      "max": [
        1,
        1,
        1
      ],
      "min": [
        -1,
        -1,
        -1
      ],
      "type": "VEC3"
    },
    {
      "bufferView": 3,
      "componentType": 5126,
      "count": 5136,
      "max": [
        1,
        0.9939457774162292,
        1,
        1
      ],
      "min": [
        -1,
        -0.9939197301864624,
        -1,
        -1
      ],
      "type": "VEC4"
    },
    {
      "bufferView": 3,
      "byteOffset": 82176,
      "componentType": 5126,
      "count": 5136,
      "max": [
        0,
        0,
        0,
        1
      ],
      "min": [
        0,
        0,
        0,
        1
      ],
      "type": "VEC4"
    },
    {
      "bufferView": 1,
      "componentType": 5126,
      "count": 5136,
      "max": [
        1,
        0.968409538269043
      ],
      "min": [
        0,
        1.7645220950612134e-16
      ],
      "type": "VEC2"
    },
    {
      "bufferView": 0,
      "componentType": 5125,
      "count": 25332,
      "type": "SCALAR"
    }
  ],
  "asset": {
    "extras": {
      "author": "Dimension Dazzle (https://sketchfab.com/Dimension_Dazzle)",
      "license": "CC-BY-4.0 (http://creativecommons.org/licenses/by/4.0/)",
      "source": "https://sketchfab.com/3d-models/arm-chair-b8084f87044044b38caa1eb7b3c20ed0",
      "title": "Arm Chair"
    },
    "generator": "Sketchfab-15.61.0",
    "version": "2.0"
  },
  "bufferViews": [
    {
      "buffer": 0,
      "byteLength": 101328,
      "name": "floatBufferViews",
      "target": 34963,
      "byteOffset": 0
    },
    {
      "buffer": 0,
      "byteLength": 41088,
      "byteOffset": 101328,
      "byteStride": 8,
      "name": "floatBufferViews",
      "target": 34962
    },
    {
      "buffer": 0,
      "byteLength": 123264,
      "byteOffset": 142416,
      "byteStride": 12,
      "name": "floatBufferViews",
      "target": 34962
    },
    {
      "buffer": 0,
      "byteLength": 164352,
      "byteOffset": 265680,
      "byteStride": 16,
      "name": "floatBufferViews",
      "target": 34962
    }
  ],
  "buffers": [
    {
      "uri": "arm_chair_data.bin",
      "byteLength": 430032
    }
  ],
  "images": [
    {
      "uri": "arm_chair_img0.png"
    },
    {
      "uri": "arm_chair_img1.png"
    },
    {
      "uri": "arm_chair_img2.png"
    }
  ],
  "materials": [
    {
      "doubleSided": true,
      "name": "aiStandardSurface1",
      "normalTexture": {
        "index": 2
      },
      "pbrMetallicRoughness": {
        "baseColorTexture": {
          "index": 0
        },
        "metallicRoughnessTexture": {
          "index": 1
        }
      }
    }
  ],
  "meshes": [
    {
      "name": "chair_aiStandardSurface1_0",
      "primitives": [
        {
          "attributes": {
            "COLOR_0": 3,
            "NORMAL": 1,
            "POSITION": 0,
            "TANGENT": 2,
            "TEXCOORD_0": 4
          },
          "indices": 5,
          "material": 0,
          "mode": 4
        }
      ]
    }
  ],
  "nodes": [
    {
      "children": [
        1
      ],
      "matrix": [
        1,
        0,
        0,
        0,
        0,
        2.220446049250313e-16,
        -1,
        0,
        0,
        1,
        2.220446049250313e-16,
        0,
        0,
        0,
        0,
        1
      ],
      "name": "Sketchfab_model"
    },
    {
      "children": [
        2
      ],
      "matrix": [
        0.009999999776482582,
        0,
        0,
        0,
        0,
        0,
        0.009999999776482582,
        0,
        0,
        -0.009999999776482582,
        0,
        0,
        0,
        0,
        0,
        1
      ],
      "name": "Arm_Chair.fbx"
    },
    {
      "children": [
        3
      ],
      "name": "RootNode"
    },
    {
      "children": [
        4
      ],
      "matrix": [
        0.5252532362937927,
        0,
        0,
        0,
        0,
        0.5252532362937927,
        0,
        0,
        0,
        0,
        0.5252532362937927,
        0,
        0,
        0,
        0,
        1
      ],
      "name": "armchair-019"
    },
    {
      "children": [
        5
      ],
      "matrix": [
        0.16338253021240234,
        0,
        0,
        0,
        0,
        0.16338253021240234,
        0,
        0,
        0,
        0,
        0.16338253021240234,
        0,
        0,
        0,
        -0.20000000298023224,
        1
      ],
      "name": "chair"
    },
    {
      "mesh": 0,
      "name": "chair_aiStandardSurface1_0"
    }
  ],
  "samplers": [
    {
      "magFilter": 9729,
      "minFilter": 9987,
      "wrapS": 10497,
      "wrapT": 10497
    }
  ],
  "scene": 0,
  "scenes": [
    {
      "name": "Sketchfab_Scene",
      "nodes": [
        0
      ]
    }
  ],
  "textures": [
    {
      "sampler": 0,
      "source": 0
    },
    {
      "sampler": 0,
      "source": 1
    },
    {
      "sampler": 0,
      "source": 2
    }
  ]
}