{
  "accessors": [
    {
      "bufferView": 2,
      "componentType": 5126,
      "count": 7730,
      "max": [
        14.735799789428711,
        30.947500228881836,
        30.43429946899414
      ],
      "min": [
        -15.120499610900879,
        -33.80189895629883,
        0.9236999750137329
      ],
      "type": "VEC3"
    },
    {
      "bufferView": 2,
      "byteOffset": 92760,
      "componentType": 5126,
      "count": 7730,
      "max": [
        0.999574601650238,
        1,
        0.9997331500053406
      ],
      "min": [
        -0.9992985725402832,
        -0.9999834299087524,
        -0.9999655485153198
      ],
      "type": "VEC3"
    },
    {
      "bufferView": 3,
      "componentType": 5126,
      "count": 7730,
      "max": [
        1,
        0.9999930262565613,
        1,
        1
      ],
      "min": [
        -1,
        -0.9997082352638245,
        -0.998175323009491,
        -1
      ],
      "type": "VEC4"
    },
    {
      "bufferView": 1,
      "componentType": 5126,
      "count": 7730,
      "max": [
        0.9934999942779541,
        1.9982999563217163
      ],
      "min": [
        0.002899999963119626,
        1.0029000043869019
      ],
      "type": "VEC2"
    },
    {
      "bufferView": 0,
      "componentType": 5125,
      "count": 29652,
      "type": "SCALAR"
    },
    {
      "bufferView": 2,
      "byteOffset": 185520,
      "componentType": 5126,
      "count": 3278,
      "max": [
        9.31089973449707,
        30.461200714111328,
        16.14579963684082
      ],
      "min": [
        -9.31089973449707,
        -30.461200714111328,
        -0.00019999999494757503
      ],
      "type": "VEC3"
    },
    {
      "bufferView": 2,
      "byteOffset": 224856,
      "componentType": 5126,
      "count": 3278,
      "max": [
        0.9988036751747131,
        1,
        0.9997535347938538
      ],
      "min": [
        -0.9988036751747131,
        -1,
        -0.9997535347938538
      ],
      "type": "VEC3"
    },
    {
      "bufferView": 3,
      "byteOffset": 123680,
      "componentType": 5126,
      "count": 3278,
      "max": [
        0.9999989867210388,
        0.9997535943984985,
        1,
        1
      ],
      "min": [
        -0.9998921751976013,
        -0.9997535943984985,
        -0.999377965927124,
        -1
      ],
      "type": "VEC4"
    },
    {
      "bufferView": 1,
      "byteOffset": 61840,
      "componentType": 5126,
      "count": 3278,
      "max": [
        0.998199999332428,
        1.993899941444397
      ],
      "min": [
        0.47290000319480896,
        1.0082999467849731
      ],
      "type": "VEC2"
    },
    {
      "bufferView": 0,
      "byteOffset": 118608,
      "componentType": 5125,
      "count": 16818,
      "type": "SCALAR"
    },
    {
      "bufferView": 2,
      "byteOffset": 264192,
      "componentType": 5126,
      "count": 9786,
      "max": [
        26.01259994506836,
        27.816699981689453,
        48.952301025390625
      ],
      "min": [
        -26.0757999420166,
        -34.52629852294922,
        -2.0998001098632812
      ],
      "type": "VEC3"
    },
    {
      "bufferView": 2,
      "byteOffset": 381624,
      "componentType": 5126,
      "count": 9786,
      "max": [
        1,
        1,
        1
      ],
      "min": [
        -1,
        -1,
        -1
      ],
      "type": "VEC3"
    },
    {
      "bufferView": 3,
      "byteOffset": 176128,
      "componentType": 5126,
      "count": 9786,
      "max": [
        1,
        1,
        1,
        1
      ],
      "min": [
        -1,
        -1,
        -1,
        -1
      ],
      "type": "VEC4"
    },
    {
      "bufferView": 1,
      "byteOffset": 88064,
      "componentType": 5126,
      "count": 9786,
      "max": [
        0.9983000159263611,
        1.996999979019165
      ],
      "min": [
        -0.0003000000142492354,
        1.003600001335144
      ],
      "type": "VEC2"
    },
    {
      "bufferView": 0,
      "byteOffset": 185880,
      "componentType": 5125,
      "count": 41133,
      "type": "SCALAR"
    },
    {
      "bufferView": 2,
      "byteOffset": 499056,
      "componentType": 5126,
      "count": 1925,
      "max": [
        26.01259994506836,
        23.481800079345703,
        43.77939987182617
      ],
      "min": [
        -25.631900787353516,
        -34.51900100708008,
        1.2057000398635864
      ],
      "type": "VEC3"
    },
    {
      "bufferView": 2,
      "byteOffset": 522156,
      "componentType": 5126,
      "count": 1925,
      "max": [
        1,
        1,
        0.9999440908432007
      ],
      "min": [
        -1,
        -1,
        -0.9999440908432007
      ],
      "type": "VEC3"
    },
    {
      "bufferView": 3,
      "byteOffset": 332704,
      "componentType": 5126,
      "count": 1925,
      "max": [
        1,
        0.9982131719589233,
        1,
        1
      ],
      "min": [
        -1,
        -0.9999793767929077,
        -0.9986957311630249,
        -1
      ],
      "type": "VEC4"
    },
    {
      "bufferView": 1,
      "byteOffset": 166352,
      "componentType": 5126,
      "count": 1925,
      "max": [
        0.9983000159263611,
        1.941100001335144
      ],
      "min": [
        0.07150000333786011,
        1.003600001335144
      ],
      "type": "VEC2"
    },
    {
      "bufferView": 0,
      "byteOffset": 350412,
      "componentType": 5125,
      "count": 7752,
      "type": "SCALAR"
    }
  ],
  "asset": {
    "extras": {
      "author": "Jako (https://sketchfab.com/fairlight51)",
      "license": "CC-BY-NC-4.0 (http://creativecommons.org/licenses/by-nc/4.0/)",
      "source": "https://sketchfab.com/3d-models/viking-drakkar-long-boat-low-poly-cc14bd0e3a614da9b00a521da51999e1",
      "title": "Viking Drakkar Long Boat Low-poly"
    },
    "generator": "Sketchfab-15.61.0",
    "version": "2.0"
  },
  "bufferViews": [
    {
      "buffer": 0,
      "byteLength": 381420,
      "name": "floatBufferViews",
      "target": 34963,
      "byteOffset": 0
    },
    {
      "buffer": 0,
      "byteLength": 181752,
      "byteOffset": 381420,
      "byteStride": 8,
      "name": "floatBufferViews",
      "target": 34962
    },
    {
      "buffer": 0,
      "byteLength": 545256,
      "byteOffset": 563172,
      "byteStride": 12,
      "name": "floatBufferViews",
      "target": 34962
    },
    {
      "buffer": 0,
      "byteLength": 363504,
      "byteOffset": 1108428,
      "byteStride": 16,
      "name": "floatBufferViews",
      "target": 34962
    }
  ],
  "buffers": [
    {
      "uri": "viking_drakkar_long_boat_low-poly_data.bin",
      "byteLength": 1471932
    }
  ],
  "extensionsUsed": [
    "KHR_materials_specular"
  ],
  "images": [
    {
      "uri": "viking_drakkar_long_boat_low-poly_img0.jpg"
    },
    {
      "uri": "viking_drakkar_long_boat_low-poly_img1.png"
    },
    {
      "uri": "viking_drakkar_long_boat_low-poly_img2.png"
    },
    {
      "uri": "viking_drakkar_long_boat_low-poly_img3.png"
    },
    {
      "uri": "viking_drakkar_long_boat_low-poly_img4.jpg"
    },
    {
      "uri": "viking_drakkar_long_boat_low-poly_img5.png"
    },
    {
      "uri": "viking_drakkar_long_boat_low-poly_img6.png"
    },
    {
      "uri": "viking_drakkar_long_boat_low-poly_img7.png"
    }
  ],
  "materials": [
    {
      "doubleSided": true,
      "extensions": {
        "KHR_materials_specular": {
          "specularColorFactor": [
            1,
            1,
            1
          ],
          "specularFactor": 1,
          "specularTexture": {
            "index": 3
          }
        }
      },
      "name": "VikingBoat_Mat1",
      "normalTexture": {
        "index": 2
      },
      "pbrMetallicRoughness": {
        "baseColorTexture": {
          "index": 0
        },
        "metallicRoughnessTexture": {
          "index": 1
        }
      }
    },
    {
      "doubleSided": true,
      "extensions": {
        "KHR_materials_specular": {
          "specularColorFactor": [
            1,
            1,
            1
          ],
          "specularFactor": 1,
          "specularTexture": {
            "index": 7
          }
        }
      },
      "name": "VikingBoat_Mat2",
      "normalTexture": {
        "index": 6
      },
      "pbrMetallicRoughness": {
        "baseColorTexture": {
          "index": 4
        },
        "metallicRoughnessTexture": {
          "index": 5
        }
      }
    }
  ],
  "meshes": [
    {
      "name": "Object_0",
      "primitives": [
        {
          "attributes": {
            "NORMAL": 1,
            "POSITION": 0,
            "TANGENT": 2,
            "TEXCOORD_0": 3
          },
          "indices": 4,
          "material": 0,
          "mode": 4
        }
      ]
    },
    {
      "name": "Object_1",
      "primitives": [
        {
          "attributes": {
            "NORMAL": 6,
            "POSITION": 5,
            "TANGENT": 7,
            "TEXCOORD_0": 8
          },
          "indices": 9,
          "material": 0,
          "mode": 4
        }
      ]
    },
    {
      "name": "Object_2",
      "primitives": [
        {
          "attributes": {
            "NORMAL": 11,
            "POSITION": 10,
            "TANGENT": 12,
            "TEXCOORD_0": 13
          },
          "indices": 14,
          "material": 1,
          "mode": 4
        }
      ]
    },
    {
      "name": "Object_3",
      "primitives": [
        {
          "attributes": {
            "NORMAL": 16,
            "POSITION": 15,
            "TANGENT": 17,
            "TEXCOORD_0": 18
          },
          "indices": 19,
          "material": 1,
          "mode": 4
        }
      ]
    }
  ],
  "nodes": [
    {
      "children": [
        1
      ],
      "matrix": [
        1,
        0,
        0,
        0,
        0,
        2.220446049250313e-16,
        -1,
        0,
        0,
        1,
        2.220446049250313e-16,
        0,
        0,
        0,
        0,
        1
      ],
      "name": "Sketchfab_model"
    },
    {
      "children": [
        2,
        3,
        4,
        5
      ],
      "name": "Viking Drakkar LongBoat Low-poly 3D model.obj.cleaner.materialmerger.gles"
    },
    {
      "mesh": 0,
      "name": "Object_2"
    },
    {
      "mesh": 1,
      "name": "Object_3"
    },
    {
      "mesh": 2,
      "name": "Object_4"
    },
    {
      "mesh": 3,
      "name": "Object_5"
    }
  ],
  "samplers": [
    {
      "magFilter": 9729,
      "minFilter": 9987,
      "wrapS": 10497,
      "wrapT": 10497
    }
  ],
  "scene": 0,
  "scenes": [
    {
      "name": "Sketchfab_Scene",
      "nodes": [
        0
      ]
    }
  ],
  "textures": [
    {
      "sampler": 0,
      "source": 0
    },
    {
      "sampler": 0,
      "source": 1
    },
    {
      "sampler": 0,
      "source": 2
    },
    {
      "sampler": 0,
      "source": 3
    },
    {
      "sampler": 0,
      "source": 4
    },
    {
      "sampler": 0,
      "source": 5
    },
    {
      "sampler": 0,
      "source": 6
    },
    {
      "sampler": 0,
      "source": 7
    }
  ]
}